<mxfile host="65bd71144e">
    <diagram id="zuclO-p_JWgcggeWlAXi" name="Page-1">
        <mxGraphModel dx="804" dy="1063" grid="1" gridSize="10" guides="1" tooltips="1" connect="1" arrows="1" fold="1" page="1" pageScale="1" pageWidth="850" pageHeight="1100" math="0" shadow="0">
            <root>
                <mxCell id="0"/>
                <mxCell id="1" parent="0"/>
                <mxCell id="4" value="" style="whiteSpace=wrap;html=1;aspect=fixed;" parent="1" vertex="1">
                    <mxGeometry x="110" y="130" width="630" height="630" as="geometry"/>
                </mxCell>
                <mxCell id="5" value="&lt;b&gt;Customer Acct:&lt;/b&gt;" style="text;html=1;strokeColor=none;fillColor=none;align=center;verticalAlign=middle;whiteSpace=wrap;rounded=0;" parent="1" vertex="1">
                    <mxGeometry x="134" y="210" width="96" height="30" as="geometry"/>
                </mxCell>
                <mxCell id="6" value="&lt;p style=&quot;line-height: 120%;&quot;&gt;&lt;font style=&quot;font-size: 20px;&quot;&gt;Canopy, Inc.&lt;/font&gt;&lt;/p&gt;" style="text;html=1;strokeColor=none;fillColor=none;align=center;verticalAlign=middle;whiteSpace=wrap;rounded=0;" parent="1" vertex="1">
                    <mxGeometry x="120" y="160" width="130" height="30" as="geometry"/>
                </mxCell>
                <mxCell id="7" value="123456789012" style="text;html=1;strokeColor=none;fillColor=none;align=center;verticalAlign=middle;whiteSpace=wrap;rounded=0;fontSize=12;" parent="1" vertex="1">
                    <mxGeometry x="225" y="210" width="100" height="30" as="geometry"/>
                </mxCell>
                <mxCell id="8" value="&lt;b&gt;Dates:&lt;/b&gt;&amp;nbsp; May 7 - June 7, 2023" style="text;html=1;strokeColor=none;fillColor=none;align=center;verticalAlign=middle;whiteSpace=wrap;rounded=0;" parent="1" vertex="1">
                    <mxGeometry x="540" y="210" width="170" height="30" as="geometry"/>
                </mxCell>
                <mxCell id="10" value="Compute" style="swimlane;whiteSpace=wrap;html=1;fontSize=12;" parent="1" vertex="1">
                    <mxGeometry x="140" y="290" width="280" height="200" as="geometry"/>
                </mxCell>
                <mxCell id="13" value="&lt;font style=&quot;font-size: 30px;&quot;&gt;17,000 &lt;/font&gt;&lt;font style=&quot;font-size: 25px;&quot;&gt;CU&lt;/font&gt;" style="text;html=1;strokeColor=none;fillColor=none;align=center;verticalAlign=middle;whiteSpace=wrap;rounded=0;fontSize=12;" parent="10" vertex="1">
                    <mxGeometry x="40" y="40" width="190" height="60" as="geometry"/>
                </mxCell>
                <mxCell id="15" value="&lt;font color=&quot;#0ff90b&quot;&gt;$ 278.32&lt;/font&gt;" style="text;html=1;strokeColor=none;fillColor=none;align=center;verticalAlign=middle;whiteSpace=wrap;rounded=0;fontSize=30;" parent="10" vertex="1">
                    <mxGeometry x="70" y="120" width="130" height="30" as="geometry"/>
                </mxCell>
                <mxCell id="11" value="Bandwidth" style="swimlane;whiteSpace=wrap;html=1;fontSize=12;" parent="1" vertex="1">
                    <mxGeometry x="140" y="490" width="570" height="250" as="geometry"/>
                </mxCell>
                <mxCell id="12" value="Storage" style="swimlane;whiteSpace=wrap;html=1;fontSize=12;startSize=23;" parent="1" vertex="1">
                    <mxGeometry x="420" y="290" width="290" height="200" as="geometry"/>
                </mxCell>
                <mxCell id="14" value="&lt;b&gt;Tier:&lt;/b&gt; Platinum" style="text;html=1;strokeColor=none;fillColor=none;align=center;verticalAlign=middle;whiteSpace=wrap;rounded=0;" parent="1" vertex="1">
                    <mxGeometry x="128" y="230" width="96" height="30" as="geometry"/>
                </mxCell>
                <mxCell id="17" value="&lt;font style=&quot;font-size: 30px;&quot;&gt;232,034 &lt;/font&gt;&lt;font style=&quot;font-size: 20px;&quot;&gt;BU&lt;/font&gt;" style="text;html=1;strokeColor=none;fillColor=none;align=center;verticalAlign=middle;whiteSpace=wrap;rounded=0;fontSize=12;" parent="1" vertex="1">
                    <mxGeometry x="460" y="335" width="190" height="60" as="geometry"/>
                </mxCell>
                <mxCell id="18" value="&lt;font color=&quot;#0ff90b&quot;&gt;$ 976.23&lt;/font&gt;" style="text;html=1;strokeColor=none;fillColor=none;align=center;verticalAlign=middle;whiteSpace=wrap;rounded=0;fontSize=30;" parent="1" vertex="1">
                    <mxGeometry x="490" y="415" width="120" height="30" as="geometry"/>
                </mxCell>
                <mxCell id="19" value="&lt;font style=&quot;font-size: 30px;&quot;&gt;2,234,219&amp;nbsp;&lt;/font&gt;&lt;font style=&quot;font-size: 20px;&quot;&gt;SU&lt;/font&gt;" style="text;html=1;strokeColor=none;fillColor=none;align=center;verticalAlign=middle;whiteSpace=wrap;rounded=0;fontSize=12;" parent="1" vertex="1">
                    <mxGeometry x="220" y="540" width="400" height="60" as="geometry"/>
                </mxCell>
                <mxCell id="20" value="&lt;font color=&quot;#0ff90b&quot;&gt;$1234.56&lt;/font&gt;" style="text;html=1;strokeColor=none;fillColor=none;align=center;verticalAlign=middle;whiteSpace=wrap;rounded=0;fontSize=30;" parent="1" vertex="1">
                    <mxGeometry x="385" y="620" width="60" height="30" as="geometry"/>
                </mxCell>
            </root>
        </mxGraphModel>
    </diagram>
</mxfile>